<?xml version="1.0" encoding="UTF-8"?>
<svg xmlns="http://www.w3.org/2000/svg" version="1.1" viewBox="0 0 844 212.9">
  <!-- Generator: Adobe Illustrator 28.6.0, SVG Export Plug-In . SVG Version: 1.2.0 Build 709)  -->
  <g>
    <g id="Layer_1">
      <g>
        <g>
          <path d="M65.6,56.7c33.8,0,58.3,24.2,58.3,57.4s-24.6,57.6-58.3,57.6H22.1V56.7h43.5ZM65,148.6c19.8,0,33.5-14.4,33.5-34.5s-13.7-34.3-33.5-34.3h-18v68.8h18Z"/>
          <path d="M208.1,82.9h17.9v88.7h-18.8l-2.1-7.9c-7.6,6.7-17.6,10.6-28.7,10.6-26.7,0-46.5-20.1-46.5-47s19.8-46.7,46.5-46.7,21.5,4,29.1,10.9l2.6-8.5ZM202.5,127.2c0-13.9-10.2-24.3-24.2-24.3s-24.2,10.4-24.2,24.3,10.2,24.3,24.2,24.3,24.2-10.4,24.2-24.3Z"/>
          <path d="M296.7,150.4v21.4h-17c-19.5,0-31.5-12-31.5-31.7v-37.8h-16v-5.2l35-37.2h4.6v23.1h24.5v19.3h-24.1v34.6c0,8.6,4.9,13.5,13.7,13.5h10.9Z"/>
          <path d="M378.1,82.9h17.9v88.7h-18.8l-2.1-7.9c-7.6,6.7-17.6,10.6-28.7,10.6-26.7,0-46.5-20.1-46.5-47s19.8-46.7,46.5-46.7,21.5,4,29.1,10.9l2.6-8.5ZM372.5,127.2c0-13.9-10.2-24.3-24.2-24.3s-24.2,10.4-24.2,24.3,10.2,24.3,24.2,24.3,24.2-10.4,24.2-24.3Z"/>
          <path d="M480.3,64.6h-54v45.7h49.8v7.7h-49.8v53.6h-8.3V56.7h62.3v7.9Z"/>
          <path d="M520.6,104.5c20.3.5,34.8,15.3,34.8,34.1s-15.5,34.8-35.3,34.8-33.7-13.4-34.9-32.3h7.7c1.2,14.7,12.1,24.8,27.2,24.8s27.4-11.7,27.4-27.5-12.5-27.3-29.1-27.3h-10.1v-2.2l30.7-39.3h-49.7v-7.3h62v2.4l-31,39.8h.3Z"/>
          <path d="M604.3,102.7c20.1,0,36.7,14.4,36.7,35s-15.8,35.8-37.6,35.8-37.7-15.1-37.7-35.8,4.4-23.7,12.1-37.4l22-39.2h8.6c-19.3,34.7-23.5,42.1-26.7,49.3,6.2-4.9,14.3-7.7,22.6-7.7h0ZM633.1,137.7c0-16.4-12.6-28.2-29.8-28.2s-29.8,11.9-29.8,28.2,12.6,28.3,29.8,28.3,29.8-12,29.8-28.3Z"/>
        </g>
        <g>
          <path d="M685.5,40.6c-1.7,11.1,3.6,18.9,10.8,25.7,20.1,19.2,44.1,30.9,71,36.4,10,2.1,20.6,1.9,30.9,2.3,7.9.3,14.7-2.5,19.8-8.9.5-.6,1.1-1,1.8-1.4.2-.1.5,0,1.8-.2.6,4,1.5,7.9,1.6,12,.2,6.7,0,13.5-.4,20.2-.6,10.1-6.4,15.8-15.8,18.8-9.6,3.1-19.5,3.3-29.3,2.2-38.7-4.7-73.8-18.4-103.6-44.1-6-5.2-10.7-11.9-15.2-18.5-4.4-6.6-4-13.9.3-20.6,6-9.2,13.6-16.9,22.9-22.9.8-.5,1.9-.6,3.3-1Z"/>
          <path d="M797.3,175.2c-7.1,10.8-17.2,17.3-28.8,21.4-10.2,3.7-20.9,4.5-31.4,2.5-23.1-4.4-44.7-12.7-64.4-26-17-11.4-25.3-27.5-27.7-47.3-.4-3.1-.6-6.2-.8-9.3,0-.7.4-1.4.7-2.6.7.5,1.5.7,1.8,1.1,7.8,13.7,19.2,23.6,32.2,32,25,16,52,26.6,81.5,30.5,11.3,1.5,22.7,1.6,33.9-1.9.9-.3,2-.3,2.9-.5Z"/>
          <path d="M740.2,24.9c19.6,1.3,36.2,7.8,50.4,20.1,3,2.7,5.4,6.3,7.5,9.8,2.5,4.4,1.3,8.3-3.4,10.2-3.5,1.5-7.5,2.5-11.2,2.4-19.3-.8-36.4-7.4-51.3-19.7-2.7-2.3-5.1-5.2-7-8.3-3.8-6.2-1.3-11.9,5.8-13.6,3.3-.8,6.7-.7,9.2-1Z"/>
        </g>
      </g>
    </g>
  </g>
</svg>